<svg width="20" height="20" viewBox="0 0 20 20" fill="none" xmlns="http://www.w3.org/2000/svg">
<g clip-path="url(#clip0_3908_14212)">
<path d="M7.5763 7.50033C7.77222 6.94338 8.15893 6.47375 8.66793 6.1746C9.17693 5.87546 9.77538 5.76611 10.3573 5.86592C10.9392 5.96573 11.467 6.26826 11.8472 6.71993C12.2274 7.1716 12.4355 7.74326 12.4346 8.33366C12.4346 10.0003 9.93464 10.8337 9.93464 10.8337M10.0013 14.167H10.0096M18.3346 10.0003C18.3346 14.6027 14.6037 18.3337 10.0013 18.3337C5.39893 18.3337 1.66797 14.6027 1.66797 10.0003C1.66797 5.39795 5.39893 1.66699 10.0013 1.66699C14.6037 1.66699 18.3346 5.39795 18.3346 10.0003Z" stroke="#ADB5BD" stroke-width="2" stroke-linecap="round" stroke-linejoin="round"/>
</g>
<defs>
<clipPath id="clip0_3908_14212">
<rect width="20" height="20" fill="white"/>
</clipPath>
</defs>
</svg>
