<svg width="20" height="21" viewBox="0 0 20 21" fill="none" xmlns="http://www.w3.org/2000/svg">
<path d="M3.33333 5.8055L8.42303 9.64906L8.42473 9.65046C8.98987 10.0649 9.27261 10.2722 9.5823 10.3523C9.85602 10.4231 10.1438 10.4231 10.4175 10.3523C10.7274 10.2722 11.011 10.0642 11.5771 9.64906C11.5771 9.64906 14.8417 7.14378 16.6667 5.8055M2.5 13.9723V7.639C2.5 6.70558 2.5 6.23852 2.68166 5.882C2.84144 5.5684 3.09623 5.31361 3.40983 5.15382C3.76635 4.97217 4.23341 4.97217 5.16683 4.97217H14.8335C15.7669 4.97217 16.233 4.97217 16.5895 5.15382C16.9031 5.31361 17.1587 5.5684 17.3185 5.882C17.5 6.23817 17.5 6.70466 17.5 7.63626V13.9751C17.5 14.9067 17.5 15.3726 17.3185 15.7287C17.1587 16.0423 16.9031 16.2976 16.5895 16.4574C16.2333 16.6388 15.7675 16.6388 14.8359 16.6388H5.16409C4.23249 16.6388 3.766 16.6388 3.40983 16.4574C3.09623 16.2976 2.84144 16.0423 2.68166 15.7287C2.5 15.3722 2.5 14.9058 2.5 13.9723Z" stroke="#A8ADB8" stroke-linecap="round" stroke-linejoin="round"/>
</svg>
