<svg width="435" height="194" viewBox="0 0 435 194" fill="none" xmlns="http://www.w3.org/2000/svg">
<mask id="path-1-inside-1_2651_42938" fill="white">
<path d="M88.6104 11.2962C88.6104 5.47222 93.3316 0.750977 99.1555 0.750977H301.065C306.889 0.750977 311.61 5.47222 311.61 11.2962V38.751H88.6104V11.2962Z"/>
</mask>
<path d="M87.6104 11.2962C87.6104 4.91993 92.7793 -0.249023 99.1555 -0.249023H301.065C307.441 -0.249023 312.61 4.91993 312.61 11.2962H310.61C310.61 6.0245 306.337 1.75098 301.065 1.75098H99.1555C93.8839 1.75098 89.6104 6.0245 89.6104 11.2962H87.6104ZM311.61 38.751H88.6104H311.61ZM87.6104 38.751V11.2962C87.6104 4.91993 92.7793 -0.249023 99.1555 -0.249023V1.75098C93.8839 1.75098 89.6104 6.0245 89.6104 11.2962V38.751H87.6104ZM301.065 -0.249023C307.441 -0.249023 312.61 4.91993 312.61 11.2962V38.751H310.61V11.2962C310.61 6.0245 306.337 1.75098 301.065 1.75098V-0.249023Z" fill="#3861FB" mask="url(#path-1-inside-1_2651_42938)"/>
<mask id="path-3-outside-2_2651_42938" maskUnits="userSpaceOnUse" x="0.390625" y="46.2783" width="161" height="136" fill="black">
<rect fill="white" x="0.390625" y="46.2783" width="161" height="136"/>
<path d="M0.390625 48.2783H161.205V181.411H0.390625V48.2783Z"/>
</mask>
<path d="M0.390625 48.2783H161.205V181.411H0.390625V48.2783Z" fill="black" fill-opacity="0.4"/>
<path d="M0.390625 49.5965H161.205V46.9602H0.390625V49.5965Z" fill="black" fill-opacity="0.4" mask="url(#path-3-outside-2_2651_42938)"/>
<path d="M0.390625 37.7328C0.390625 28.9969 7.47249 21.915 16.2084 21.915H145.387C154.123 21.915 161.205 28.9969 161.205 37.7328V48.278H0.390625V37.7328Z" fill="black"/>
<circle opacity="0.7" cx="34.6627" cy="35.0963" r="2.6363" fill="#FFCC26"/>
<circle opacity="0.7" cx="24.1177" cy="35.0963" r="2.6363" fill="#F26056"/>
<circle opacity="0.7" cx="13.5718" cy="35.0963" r="2.6363" fill="#3DC751"/>
<rect x="12.2539" y="61.46" width="71.18" height="7.90889" rx="3.95445" fill="url(#paint0_linear_2651_42938)"/>
<rect x="86.0703" y="61.46" width="27.6811" height="7.90889" rx="3.95445" fill="url(#paint1_linear_2651_42938)"/>
<rect x="12.2539" y="72.0049" width="60.6348" height="5.27259" rx="2.6363" fill="white" fill-opacity="0.15"/>
<rect x="12.2539" y="79.9141" width="71.18" height="5.27259" rx="2.6363" fill="white" fill-opacity="0.15"/>
<rect x="12.2539" y="93.0947" width="137.087" height="57.9985" rx="5.27259" fill="white" fill-opacity="0.1"/>
<path opacity="0.6" d="M72.8897 126.488C72.8896 126.431 72.8896 126.372 72.8896 126.312V117.876C72.8896 116.891 72.8896 116.399 73.0812 116.023C73.2497 115.692 73.5184 115.424 73.8491 115.255C74.225 115.063 74.7176 115.063 75.7019 115.063H85.8956C86.8799 115.063 87.3718 115.063 87.7477 115.255C88.0784 115.424 88.3476 115.692 88.5161 116.023C88.7074 116.398 88.7074 116.89 88.7074 117.873V126.314C88.7074 126.741 88.7074 127.074 88.6918 127.346M72.8897 126.488C72.8904 127.356 72.9014 127.811 73.0812 128.164C73.2497 128.494 73.5184 128.764 73.8491 128.932C74.2247 129.124 74.7166 129.124 75.699 129.124H85.8985C86.8809 129.124 87.3721 129.124 87.7477 128.932C88.0784 128.764 88.3476 128.494 88.5161 128.164C88.6244 127.951 88.6714 127.701 88.6918 127.346M72.8897 126.488L77.0796 121.599L77.0808 121.598C77.4524 121.164 77.6386 120.947 77.8593 120.869C78.0532 120.8 78.2649 120.802 78.4579 120.873C78.6778 120.955 78.8609 121.174 79.2272 121.614L81.5746 124.431C81.9137 124.838 82.0842 125.042 82.2912 125.124C82.4739 125.197 82.6753 125.205 82.8637 125.149C83.0782 125.086 83.2671 124.897 83.6447 124.52L84.0815 124.083C84.4659 123.698 84.6581 123.506 84.8757 123.444C85.0668 123.388 85.2711 123.4 85.455 123.476C85.6643 123.563 85.834 123.774 86.1737 124.199L88.6918 127.346M88.6918 127.346L88.7074 127.366M83.4348 120.336C82.9495 120.336 82.5561 119.943 82.5561 119.457C82.5561 118.972 82.9495 118.579 83.4348 118.579C83.9202 118.579 84.3136 118.972 84.3136 119.457C84.3136 119.943 83.9202 120.336 83.4348 120.336Z" stroke="white" stroke-width="1.05452" stroke-linecap="round" stroke-linejoin="round"/>
<mask id="path-15-outside-3_2651_42938" maskUnits="userSpaceOnUse" x="188.886" y="58.1416" width="246" height="136" fill="black">
<rect fill="white" x="188.886" y="58.1416" width="246" height="136"/>
<path d="M188.886 60.1416H434.61V193.275H188.886V60.1416Z"/>
</mask>
<path d="M188.886 60.1416H434.61V193.275H188.886V60.1416Z" fill="black" fill-opacity="0.4"/>
<path d="M188.886 61.4597H434.61V58.8235H188.886V61.4597Z" fill="black" fill-opacity="0.4" mask="url(#path-15-outside-3_2651_42938)"/>
<path d="M188.886 50.9145C188.886 42.1785 195.968 35.0967 204.704 35.0967H418.792C427.528 35.0967 434.61 42.1785 434.61 50.9145V61.4596H188.886V50.9145Z" fill="black"/>
<rect x="200.749" y="74.6416" width="122.588" height="7.90889" rx="3.95445" fill="url(#paint2_linear_2651_42938)"/>
<rect x="328.609" y="74.6416" width="47.4533" height="7.90889" rx="3.95445" fill="url(#paint3_linear_2651_42938)"/>
<rect x="200.749" y="85.1865" width="60.6348" height="5.27259" rx="2.6363" fill="white" fill-opacity="0.15"/>
<rect x="200.749" y="93.0947" width="71.18" height="5.27259" rx="2.6363" fill="white" fill-opacity="0.15"/>
<rect x="200.749" y="106.276" width="96.2248" height="57.9985" rx="5.27259" fill="white" fill-opacity="0.1"/>
<rect x="300.929" y="106.276" width="59.3167" height="57.9985" rx="5.27259" fill="white" fill-opacity="0.1"/>
<rect x="364.199" y="106.276" width="59.3167" height="57.9985" rx="5.27259" fill="white" fill-opacity="0.1"/>
<path opacity="0.6" d="M241.612 139.669C241.612 139.612 241.612 139.554 241.612 139.493V131.057C241.612 130.073 241.612 129.581 241.804 129.205C241.972 128.874 242.241 128.605 242.572 128.437C242.948 128.245 243.44 128.245 244.425 128.245H254.618C255.603 128.245 256.094 128.245 256.47 128.437C256.801 128.605 257.07 128.874 257.239 129.205C257.43 129.58 257.43 130.072 257.43 131.054V139.496C257.43 139.922 257.43 140.256 257.414 140.528M241.612 139.669C241.613 140.538 241.624 140.992 241.804 141.345C241.972 141.676 242.241 141.945 242.572 142.114C242.947 142.305 243.439 142.305 244.422 142.305H254.621C255.604 142.305 256.095 142.305 256.47 142.114C256.801 141.945 257.07 141.676 257.239 141.345C257.347 141.133 257.394 140.883 257.414 140.528M241.612 139.669L245.802 134.781L245.803 134.78C246.175 134.346 246.361 134.129 246.582 134.051C246.776 133.982 246.988 133.983 247.181 134.055C247.4 134.136 247.584 134.356 247.95 134.796L250.297 137.612C250.636 138.019 250.807 138.224 251.014 138.306C251.197 138.378 251.398 138.387 251.586 138.331C251.801 138.268 251.99 138.079 252.367 137.701L252.804 137.264C253.189 136.88 253.381 136.688 253.598 136.625C253.789 136.57 253.994 136.582 254.178 136.658C254.387 136.744 254.557 136.956 254.896 137.38L257.414 140.528M257.414 140.528L257.43 140.547M252.157 133.518C251.672 133.518 251.279 133.124 251.279 132.639C251.279 132.154 251.672 131.76 252.157 131.76C252.643 131.76 253.036 132.154 253.036 132.639C253.036 133.124 252.643 133.518 252.157 133.518Z" stroke="white" stroke-width="1.05452" stroke-linecap="round" stroke-linejoin="round"/>
<path opacity="0.6" d="M385.136 139.669C385.136 139.612 385.136 139.554 385.136 139.493V131.057C385.136 130.073 385.136 129.581 385.327 129.205C385.496 128.874 385.764 128.605 386.095 128.437C386.471 128.245 386.964 128.245 387.948 128.245H398.142C399.126 128.245 399.618 128.245 399.994 128.437C400.325 128.605 400.594 128.874 400.762 129.205C400.954 129.58 400.954 130.072 400.954 131.054V139.496C400.954 139.922 400.954 140.256 400.938 140.528M385.136 139.669C385.136 140.538 385.147 140.992 385.327 141.345C385.496 141.676 385.764 141.945 386.095 142.114C386.471 142.305 386.963 142.305 387.945 142.305H398.145C399.127 142.305 399.618 142.305 399.994 142.114C400.325 141.945 400.594 141.676 400.762 141.345C400.87 141.133 400.918 140.883 400.938 140.528M385.136 139.669L389.326 134.781L389.327 134.78C389.699 134.346 389.885 134.129 390.105 134.051C390.299 133.982 390.511 133.983 390.704 134.055C390.924 134.136 391.107 134.356 391.473 134.796L393.821 137.612C394.16 138.019 394.33 138.224 394.537 138.306C394.72 138.378 394.921 138.387 395.11 138.331C395.324 138.268 395.513 138.079 395.891 137.701L396.328 137.264C396.712 136.88 396.904 136.688 397.122 136.625C397.313 136.57 397.517 136.582 397.701 136.658C397.91 136.744 398.08 136.956 398.42 137.38L400.938 140.528M400.938 140.528L400.954 140.547M395.681 133.518C395.196 133.518 394.802 133.124 394.802 132.639C394.802 132.154 395.196 131.76 395.681 131.76C396.166 131.76 396.56 132.154 396.56 132.639C396.56 133.124 396.166 133.518 395.681 133.518Z" stroke="white" stroke-width="1.05452" stroke-linecap="round" stroke-linejoin="round"/>
<path opacity="0.6" d="M192.996 140.086C192.996 140.029 192.996 139.97 192.996 139.91V131.462C192.996 130.477 192.996 129.984 193.114 129.607C193.217 129.276 193.382 129.007 193.585 128.838C193.816 128.646 194.118 128.646 194.722 128.646H200.979C201.584 128.646 201.886 128.646 202.116 128.838C202.319 129.007 202.485 129.276 202.588 129.607C202.705 129.983 202.705 130.476 202.705 131.46V139.912C202.705 140.339 202.705 140.673 202.696 140.946M192.996 140.086C192.997 140.955 193.003 141.411 193.114 141.764C193.217 142.095 193.382 142.365 193.585 142.534C193.816 142.725 194.118 142.725 194.721 142.725H200.981C201.584 142.725 201.886 142.725 202.116 142.534C202.319 142.365 202.485 142.095 202.588 141.764C202.654 141.551 202.683 141.301 202.696 140.946M192.996 140.086L195.568 135.191L195.569 135.19C195.797 134.755 195.911 134.538 196.047 134.46C196.166 134.391 196.296 134.392 196.414 134.464C196.549 134.545 196.661 134.765 196.886 135.206L198.327 138.026C198.535 138.434 198.64 138.638 198.767 138.721C198.879 138.793 199.003 138.801 199.118 138.746C199.25 138.682 199.366 138.493 199.598 138.115L199.866 137.678C200.102 137.293 200.22 137.1 200.353 137.038C200.471 136.982 200.596 136.994 200.709 137.07C200.837 137.157 200.942 137.369 201.15 137.794L202.696 140.946M202.696 140.946L202.705 140.965M199.469 133.926C199.171 133.926 198.93 133.532 198.93 133.046C198.93 132.56 199.171 132.166 199.469 132.166C199.767 132.166 200.008 132.56 200.008 133.046C200.008 133.532 199.767 133.926 199.469 133.926Z" stroke="white" stroke-width="1.31815" stroke-linecap="round" stroke-linejoin="round"/>
<circle opacity="0.7" cx="223.158" cy="48.2779" r="2.6363" fill="#FFCC26"/>
<circle opacity="0.7" cx="212.613" cy="48.2779" r="2.6363" fill="#F26056"/>
<circle opacity="0.7" cx="202.067" cy="48.2779" r="2.6363" fill="#3DC751"/>
<defs>
<linearGradient id="paint0_linear_2651_42938" x1="83.4339" y1="67.7118" x2="12.2028" y2="63.8787" gradientUnits="userSpaceOnUse">
<stop stop-color="#3944E1"/>
<stop offset="0.505" stop-color="#7152DA"/>
<stop offset="1" stop-color="#FF7F65"/>
</linearGradient>
<linearGradient id="paint1_linear_2651_42938" x1="113.751" y1="67.7118" x2="85.9824" y2="67.1307" gradientUnits="userSpaceOnUse">
<stop stop-color="#3944E1"/>
<stop offset="0.505" stop-color="#7152DA"/>
<stop offset="1" stop-color="#FF7F65"/>
</linearGradient>
<linearGradient id="paint2_linear_2651_42938" x1="323.337" y1="80.8934" x2="201.353" y2="69.5885" gradientUnits="userSpaceOnUse">
<stop stop-color="#3944E1"/>
<stop offset="0.505" stop-color="#7152DA"/>
<stop offset="1" stop-color="#FF7F65"/>
</linearGradient>
<linearGradient id="paint3_linear_2651_42938" x1="376.063" y1="80.8934" x2="328.499" y2="79.1871" gradientUnits="userSpaceOnUse">
<stop stop-color="#3944E1"/>
<stop offset="0.505" stop-color="#7152DA"/>
<stop offset="1" stop-color="#FF7F65"/>
</linearGradient>
</defs>
</svg>