<svg width="1440" height="1440" viewBox="0 0 1440 1440" fill="none" xmlns="http://www.w3.org/2000/svg">
<g clip-path="url(#clip0_3697_26221)">
<line opacity="0.1" x1="23.5" x2="23.5" y2="1440" stroke="#F8F9FA"/>
</g>
<g clip-path="url(#clip1_3697_26221)">
<line opacity="0.1" x1="198.5" x2="198.5" y2="1440" stroke="#F8F9FA"/>
</g>
<g clip-path="url(#clip2_3697_26221)">
<line opacity="0.1" x1="373.5" x2="373.5" y2="1440" stroke="#F8F9FA"/>
</g>
<g clip-path="url(#clip3_3697_26221)">
<line opacity="0.1" x1="548.5" x2="548.5" y2="1440" stroke="#F8F9FA"/>
</g>
<g clip-path="url(#clip4_3697_26221)">
<line opacity="0.1" x1="723.5" x2="723.5" y2="1440" stroke="#F8F9FA"/>
</g>
<g clip-path="url(#clip5_3697_26221)">
<line opacity="0.1" x1="898.5" x2="898.5" y2="1440" stroke="#F8F9FA"/>
</g>
<g clip-path="url(#clip6_3697_26221)">
<line opacity="0.1" x1="1073.5" x2="1073.5" y2="1440" stroke="#F8F9FA"/>
</g>
<g clip-path="url(#clip7_3697_26221)">
<line opacity="0.1" x1="1248.5" x2="1248.5" y2="1440" stroke="#F8F9FA"/>
</g>
<g clip-path="url(#clip8_3697_26221)">
<line opacity="0.1" x1="1423.5" x2="1423.5" y2="1440" stroke="#F8F9FA"/>
</g>
<defs>
<clipPath id="clip0_3697_26221">
<rect width="1440" height="40" fill="white" transform="matrix(0 -1 1 0 0 1440)"/>
</clipPath>
<clipPath id="clip1_3697_26221">
<rect width="1440" height="40" fill="white" transform="matrix(0 -1 1 0 175 1440)"/>
</clipPath>
<clipPath id="clip2_3697_26221">
<rect width="1440" height="40" fill="white" transform="matrix(0 -1 1 0 350 1440)"/>
</clipPath>
<clipPath id="clip3_3697_26221">
<rect width="1440" height="40" fill="white" transform="matrix(0 -1 1 0 525 1440)"/>
</clipPath>
<clipPath id="clip4_3697_26221">
<rect width="1440" height="40" fill="white" transform="matrix(0 -1 1 0 700 1440)"/>
</clipPath>
<clipPath id="clip5_3697_26221">
<rect width="1440" height="40" fill="white" transform="matrix(0 -1 1 0 875 1440)"/>
</clipPath>
<clipPath id="clip6_3697_26221">
<rect width="1440" height="40" fill="white" transform="matrix(0 -1 1 0 1050 1440)"/>
</clipPath>
<clipPath id="clip7_3697_26221">
<rect width="1440" height="40" fill="white" transform="matrix(0 -1 1 0 1225 1440)"/>
</clipPath>
<clipPath id="clip8_3697_26221">
<rect width="1440" height="40" fill="white" transform="matrix(0 -1 1 0 1400 1440)"/>
</clipPath>
</defs>
</svg>
