<svg width="1440" height="741" viewBox="0 0 1440 741" fill="none" xmlns="http://www.w3.org/2000/svg">
<g clip-path="url(#clip0_3697_26209)">
<line opacity="0.1" x1="1439.97" y1="23.6152" x2="-0.03125" y2="23.6152" stroke="#F8F9FA"/>
</g>
<g clip-path="url(#clip1_3697_26209)">
<line opacity="0.1" x1="1439.97" y1="93.6152" x2="-0.03125" y2="93.6152" stroke="#F8F9FA"/>
</g>
<g clip-path="url(#clip2_3697_26209)">
<line opacity="0.1" x1="1439.97" y1="163.615" x2="-0.03125" y2="163.615" stroke="#F8F9FA"/>
</g>
<g clip-path="url(#clip3_3697_26209)">
<line opacity="0.1" x1="1439.97" y1="233.615" x2="-0.03125" y2="233.615" stroke="#F8F9FA"/>
</g>
<g clip-path="url(#clip4_3697_26209)">
<line opacity="0.1" x1="1439.97" y1="303.615" x2="-0.03125" y2="303.615" stroke="#F8F9FA"/>
</g>
<g clip-path="url(#clip5_3697_26209)">
<line opacity="0.1" x1="1439.97" y1="373.615" x2="-0.03125" y2="373.615" stroke="#F8F9FA"/>
</g>
<g clip-path="url(#clip6_3697_26209)">
<line opacity="0.1" x1="1439.97" y1="443.615" x2="-0.03125" y2="443.615" stroke="#F8F9FA"/>
</g>
<g clip-path="url(#clip7_3697_26209)">
<line opacity="0.1" x1="1439.97" y1="513.615" x2="-0.03125" y2="513.615" stroke="#F8F9FA"/>
</g>
<g clip-path="url(#clip8_3697_26209)">
<line opacity="0.1" x1="1439.97" y1="583.615" x2="-0.03125" y2="583.615" stroke="#F8F9FA"/>
</g>
<g clip-path="url(#clip9_3697_26209)">
<line opacity="0.1" x1="1439.97" y1="653.615" x2="-0.03125" y2="653.615" stroke="#F8F9FA"/>
</g>
<g clip-path="url(#clip10_3697_26209)">
<line opacity="0.1" x1="1439.97" y1="723.615" x2="-0.03125" y2="723.615" stroke="#F8F9FA"/>
</g>
<defs>
<clipPath id="clip0_3697_26209">
<rect width="1440" height="40" fill="white" transform="translate(-0.03125 0.115234)"/>
</clipPath>
<clipPath id="clip1_3697_26209">
<rect width="1440" height="40" fill="white" transform="translate(-0.03125 70.1152)"/>
</clipPath>
<clipPath id="clip2_3697_26209">
<rect width="1440" height="40" fill="white" transform="translate(-0.03125 140.115)"/>
</clipPath>
<clipPath id="clip3_3697_26209">
<rect width="1440" height="40" fill="white" transform="translate(-0.03125 210.115)"/>
</clipPath>
<clipPath id="clip4_3697_26209">
<rect width="1440" height="40" fill="white" transform="translate(-0.03125 280.115)"/>
</clipPath>
<clipPath id="clip5_3697_26209">
<rect width="1440" height="40" fill="white" transform="translate(-0.03125 350.115)"/>
</clipPath>
<clipPath id="clip6_3697_26209">
<rect width="1440" height="40" fill="white" transform="translate(-0.03125 420.115)"/>
</clipPath>
<clipPath id="clip7_3697_26209">
<rect width="1440" height="40" fill="white" transform="translate(-0.03125 490.115)"/>
</clipPath>
<clipPath id="clip8_3697_26209">
<rect width="1440" height="40" fill="white" transform="translate(-0.03125 560.115)"/>
</clipPath>
<clipPath id="clip9_3697_26209">
<rect width="1440" height="40" fill="white" transform="translate(-0.03125 630.115)"/>
</clipPath>
<clipPath id="clip10_3697_26209">
<rect width="1440" height="40" fill="white" transform="translate(-0.03125 700.115)"/>
</clipPath>
</defs>
</svg>
